<!DOCTYPE svg PUBLIC "-//W3C//DTD SVG 1.1//EN" "http://www.w3.org/Graphics/SVG/1.1/DTD/svg11.dtd">
<!-- Uploaded to: SVG Repo, www.svgrepo.com, Transformed by: SVG Repo Mixer Tools -->
<svg fill="#003cff" width="800px" height="800px" viewBox="0 0 1024 1024" xmlns="http://www.w3.org/2000/svg" stroke="#003cff">
<g id="SVGRepo_bgCarrier" stroke-width="0"/>
<g id="SVGRepo_tracerCarrier" stroke-linecap="round" stroke-linejoin="round"/>
<g id="SVGRepo_iconCarrier">
<path d="M277.675 981.521c5.657 0 10.24-4.583 10.24-10.24V499.514c0-5.651-4.588-10.24-10.24-10.24h-81.92c-5.652 0-10.24 4.589-10.24 10.24v471.767c0 5.657 4.583 10.24 10.24 10.24h81.92zm0 40.96h-81.92c-28.278 0-51.2-22.922-51.2-51.2V499.514c0-28.271 22.924-51.2 51.2-51.2h81.92c28.276 0 51.2 22.929 51.2 51.2v471.767c0 28.278-22.922 51.2-51.2 51.2zm275.456-40.96c5.657 0 10.24-4.583 10.24-10.24V408.777c0-5.657-4.583-10.24-10.24-10.24h-81.92a10.238 10.238 0 00-10.24 10.24v562.504c0 5.657 4.583 10.24 10.24 10.24h81.92zm0 40.96h-81.92c-28.278 0-51.2-22.922-51.2-51.2V408.777c0-28.278 22.922-51.2 51.2-51.2h81.92c28.278 0 51.2 22.922 51.2 51.2v562.504c0 28.278-22.922 51.2-51.2 51.2zm275.456-40.016c5.657 0 10.24-4.583 10.24-10.24V318.974c0-5.651-4.588-10.24-10.24-10.24h-81.92c-5.652 0-10.24 4.589-10.24 10.24v653.251c0 5.657 4.583 10.24 10.24 10.24h81.92zm0 40.96h-81.92c-28.278 0-51.2-22.922-51.2-51.2V318.974c0-28.271 22.924-51.2 51.2-51.2h81.92c28.276 0 51.2 22.929 51.2 51.2v653.251c0 28.278-22.922 51.2-51.2 51.2zM696.848 40.96l102.39.154c11.311.017 20.494-9.138 20.511-20.449S810.611.171 799.3.154L696.91 0c-11.311-.017-20.494 9.138-20.511 20.449s9.138 20.494 20.449 20.511z"/>
<path d="M778.789 20.571l-.307 101.827c-.034 11.311 9.107 20.508 20.418 20.542s20.508-9.107 20.542-20.418l.307-101.827C819.783 9.384 810.642.187 799.331.153s-20.508 9.107-20.542 20.418z"/>
<path d="M163.84 317.682h154.184a51.207 51.207 0 0036.211-14.999L457.208 199.71a10.263 10.263 0 017.237-3.003h159.754a51.235 51.235 0 0036.198-14.976l141.13-141.13c7.998-7.998 7.998-20.965 0-28.963s-20.965-7.998-28.963 0L631.447 152.755a10.265 10.265 0 01-7.248 2.992H464.445a51.226 51.226 0 00-36.201 14.999L325.271 273.719a10.244 10.244 0 01-7.248 3.003H163.839c-11.311 0-20.48 9.169-20.48 20.48s9.169 20.48 20.48 20.48z"/>
</g>
</svg>