<?xml version="1.0" encoding="utf-8"?>

<!DOCTYPE svg PUBLIC "-//W3C//DTD SVG 1.1//EN" "http://www.w3.org/Graphics/SVG/1.1/DTD/svg11.dtd">
<!-- Uploaded to: SVG Repo, www.svgrepo.com, Generator: SVG Repo Mixer Tools -->
<svg version="1.1" id="_x32_" xmlns="http://www.w3.org/2000/svg" xmlns:xlink="http://www.w3.org/1999/xlink" 
	 width="800px" height="800px" viewBox="0 0 512 512"  xml:space="preserve">
<style type="text/css">
<![CDATA[
	.st0{fill:#003c98;}
]]>
</style>
<g>
	<path class="st0" d="M335.859,68.875c0,0,4.656-12.469,29.734-28.297c24.063-15.172,5.594-36.141-29.734-28.422
		C311.469,17.469,319.75,0,285.547,0s-25.922,17.469-50.313,12.156c-35.328-7.719-53.797,13.25-29.734,28.422
		c25.078,15.828,29.734,28.297,29.734,28.297H335.859z"/>
	<path class="st0" d="M432.063,224.453c0-7.141-4.234-13.281-10.328-16.109c6.094-2.844,10.344-8.969,10.344-16.109
		c0-7.156-4.25-13.297-10.344-16.125c6.078-2.828,10.328-8.953,10.328-16.125c0-9.828-7.969-17.797-17.813-17.797h-59.375
		c-9.828,0-17.813,7.969-17.813,17.797c0,7.172,4.25,13.297,10.344,16.125c-6.094,2.828-10.344,8.969-10.344,16.125
		c0,7.141,4.25,13.266,10.344,16.109c-6.094,2.828-10.344,8.969-10.344,16.109c0,7.156,4.25,13.297,10.344,16.109
		c-6.094,2.844-10.344,8.969-10.344,16.125c0,9.844,7.984,17.813,17.813,17.813h59.375c9.828,0,17.813-7.969,17.813-17.813
		c0-7.156-4.25-13.281-10.328-16.109C427.813,237.75,432.063,231.609,432.063,224.453z"/>
	<path class="st0" d="M346.203,89.641c-20,0-113.25,0-113.25,0c-48.969,0-62.656,38.328-100.578,38.328v121.641l16.578-0.766
		c126.688-9.813,115.625-119.188,115.625-119.188s31.063,0,71.094,0C375.688,129.656,377.797,89.641,346.203,89.641z"/>
	<rect x="64.703" y="113.75" class="st0" width="50.563" height="164.281"/>
	<path class="st0" d="M309.906,368.781c3.984-2.813,5.984-7.266,5.984-13.391c0-6.344-1.797-10.859-5.391-13.563
		c-3.594-2.688-9.219-4.047-16.859-4.047H277.75V373h14.641C300.078,373,305.922,371.594,309.906,368.781z"/>
	<path class="st0" d="M314.938,393.266c-1.797-1.484-4.094-2.641-6.906-3.422s-6.203-1.172-10.188-1.172H277.75v35.719h20.172
		c4.219,0,7.734-0.516,10.578-1.516c2.828-1.016,5.109-2.359,6.813-4.047c1.719-1.688,2.953-3.641,3.703-5.891
		c0.766-2.25,1.141-4.641,1.141-7.172c0-2.641-0.422-5.016-1.266-7.109C318.063,396.547,316.734,394.75,314.938,393.266z"/>
	<path class="st0" d="M432.891,288.344c-5.469,3.219-11.828,5.125-18.641,5.125h-59.375c-20.266,0-36.766-16.5-36.766-36.781
		c0-5.672,1.328-11.172,3.766-16.109c-2.438-4.938-3.766-10.438-3.766-16.125c0-5.672,1.328-11.172,3.766-16.109
		c-2.438-4.938-3.766-10.438-3.766-16.109c0-5.688,1.328-11.188,3.766-16.125c-2.422-4.938-3.766-10.438-3.766-16.125
		c0-3.969,0.641-7.781,1.813-11.359h-36.75c-1.703,18.797-7.984,47.141-28.594,71.813c-22.453,26.844-55.891,42.531-99.313,46.813
		c-14.125,27.375-24.203,56.891-24.203,86.625c0,87.328,70.797,158.125,158.109,158.125c87.328,0,158.125-70.797,158.125-158.125
		C447.297,331.625,441.625,309.531,432.891,288.344z M342.453,420.594c-1.969,4.391-4.828,8.156-8.594,11.344
		c-3.75,3.172-8.391,5.656-13.906,7.453c-5.484,1.797-11.781,2.688-18.859,2.688h-2.484v12.328h-19.25v-12.328h-24.266h-7.953
		v-9.891c0-2.922-0.188-4.672,2.609-5.281c0.25-0.047,0.609-0.094,1.063-0.188c0.469-0.094,1.297-0.234,2.516-0.453
		c1.203-0.219-0.344-0.516,1.766-0.891v-88.422c-2.109-0.359-0.563-0.656-1.766-0.875c-1.219-0.234-2.047-0.359-2.516-0.453
		c-0.453-0.078-0.813-0.156-1.063-0.188c-2.797-0.594-2.609-2.359-2.609-5.281v-9.891h7.953h24.266v-13.172h19.25v13.281
		c5.875,0.25,11.031,0.969,15.453,2.156c5.656,1.516,10.297,3.688,13.906,6.5c3.625,2.797,6.281,6.188,7.953,10.188
		c1.703,3.984,2.531,8.469,2.531,13.469c0,2.875-0.406,5.609-1.25,8.219c-0.859,2.609-2.156,5.063-3.922,7.344
		c-1.781,2.266-4.016,4.328-6.75,6.188c-2.719,1.844-6.234,4.719-6.234,4.719c16.734,3.75,25.109,12.797,25.109,27.125
		C345.406,411.438,344.422,416.219,342.453,420.594z"/>
</g>
</svg>