<!DOCTYPE svg PUBLIC "-//W3C//DTD SVG 1.1//EN" "http://www.w3.org/Graphics/SVG/1.1/DTD/svg11.dtd">
<!-- Uploaded to: SVG Repo, www.svgrepo.com, Transformed by: SVG Repo Mixer Tools -->
<svg fill="#003cff" width="800px" height="800px" viewBox="0 0 1024 1024" xmlns="http://www.w3.org/2000/svg" stroke="#003cff">
<g id="SVGRepo_bgCarrier" stroke-width="0"/>
<g id="SVGRepo_tracerCarrier" stroke-linecap="round" stroke-linejoin="round"/>
<g id="SVGRepo_iconCarrier">
<path d="M443.246 415.943c0-23.138-17.983-41.656-39.864-41.656-21.875 0-39.864 18.522-39.864 41.656s17.989 41.656 39.864 41.656c21.881 0 39.864-18.518 39.864-41.656zm40.96 0c0 45.495-36.048 82.616-80.824 82.616-44.769 0-80.824-37.124-80.824-82.616s36.055-82.616 80.824-82.616c44.776 0 80.824 37.121 80.824 82.616zm176.274 192.62c0-23.138-17.983-41.656-39.864-41.656-21.875 0-39.864 18.522-39.864 41.656s17.989 41.656 39.864 41.656c21.881 0 39.864-18.518 39.864-41.656zm40.96 0c0 45.495-36.048 82.616-80.824 82.616-44.769 0-80.824-37.124-80.824-82.616s36.055-82.616 80.824-82.616c44.776 0 80.824 37.121 80.824 82.616zm-95.515-225.529L364.558 631.579c-7.88 8.114-7.69 21.08.424 28.96s21.08 7.69 28.96-.424L635.309 411.57c7.88-8.114 7.69-21.08-.424-28.96s-21.08-7.69-28.96.424z"/>
<path d="M829.44 911.866c45.245 0 81.92-36.675 81.92-81.92V194.564c0-45.245-36.675-81.92-81.92-81.92H194.56c-45.245 0-81.92 36.675-81.92 81.92v635.382c0 45.245 36.675 81.92 81.92 81.92h634.88zm0 40.96H194.56c-67.866 0-122.88-55.014-122.88-122.88V194.564c0-67.866 55.014-122.88 122.88-122.88h634.88c67.866 0 122.88 55.014 122.88 122.88v635.382c0 67.866-55.014 122.88-122.88 122.88z"/>
</g>
</svg>