<!DOCTYPE svg PUBLIC "-//W3C//DTD SVG 1.1//EN" "http://www.w3.org/Graphics/SVG/1.1/DTD/svg11.dtd">
<!-- Uploaded to: SVG Repo, www.svgrepo.com, Transformed by: SVG Repo Mixer Tools -->
<svg fill="#ffffff" width="800px" height="800px" viewBox="0 0 19.00 19.00" xmlns="http://www.w3.org/2000/svg" class="cf-icon-svg" transform="rotate(90)" stroke="#ffffff" stroke-width="0.00019">
<g id="SVGRepo_bgCarrier" stroke-width="0"/>
<g id="SVGRepo_tracerCarrier" stroke-linecap="round" stroke-linejoin="round"/>
<g id="SVGRepo_iconCarrier">
<path d="M14.897 7.404a.553.553 0 0 1-.392-.163 9.192 9.192 0 0 0-13.01 0 .554.554 0 1 1-.784-.783 10.3 10.3 0 0 1 14.578 0 .554.554 0 0 1-.392.946zm-2.172 2.172a.553.553 0 0 1-.392-.162 6.127 6.127 0 0 0-8.666 0 .554.554 0 0 1-.784-.784 7.23 7.23 0 0 1 10.233 0 .554.554 0 0 1-.391.946zm-2.173 2.173a.553.553 0 0 1-.392-.162 3.054 3.054 0 0 0-4.32 0 .554.554 0 1 1-.784-.784 4.163 4.163 0 0 1 5.888 0 .554.554 0 0 1-.392.946zm-1.141 2.048a1.403 1.403 0 1 1-1.403-1.403 1.403 1.403 0 0 1 1.403 1.403z"/>
</g>
</svg>